<?xml version="1.0" encoding="UTF-8"?>
<svg width="700pt" height="700pt" version="1.1" viewBox="0 0 700 700" xmlns="http://www.w3.org/2000/svg" xmlns:xlink="http://www.w3.org/1999/xlink">
 <defs>
  <symbol id="s" overflow="visible">
   <path d="m3.8281-0.23438c-0.19922 0.10547-0.40625 0.18359-0.625 0.23438-0.21094 0.050781-0.42969 0.078125-0.65625 0.078125-0.69922 0-1.25-0.19141-1.6562-0.57812-0.40625-0.38281-0.60938-0.91016-0.60938-1.5781 0-0.66406 0.20312-1.1914 0.60938-1.5781 0.40625-0.39453 0.95703-0.59375 1.6562-0.59375 0.22656 0 0.44531 0.027344 0.65625 0.078125 0.21875 0.054687 0.42578 0.13281 0.625 0.23438v0.85938c-0.19922-0.13281-0.39844-0.23438-0.59375-0.29688-0.1875-0.0625-0.39062-0.09375-0.60938-0.09375-0.375 0-0.67969 0.125-0.90625 0.375-0.21875 0.24219-0.32812 0.57812-0.32812 1.0156 0 0.42969 0.10938 0.76562 0.32812 1.0156 0.22656 0.24219 0.53125 0.35938 0.90625 0.35938 0.21875 0 0.42188-0.03125 0.60938-0.09375 0.19531-0.0625 0.39453-0.16016 0.59375-0.29688z"/>
  </symbol>
  <symbol id="b" overflow="visible">
   <path d="m2.7969-2.2812c-0.085937-0.039062-0.17188-0.066406-0.26562-0.078125-0.085938-0.019531-0.16797-0.03125-0.25-0.03125-0.26172 0-0.46094 0.085937-0.59375 0.25-0.13672 0.15625-0.20312 0.39062-0.20312 0.70312v1.4375h-1v-3.125h1v0.51562c0.125-0.20703 0.26953-0.35938 0.4375-0.45312 0.16406-0.09375 0.36328-0.14062 0.59375-0.14062 0.039063 0 0.078125 0.007813 0.10938 0.015625h0.17188z"/>
  </symbol>
  <symbol id="a" overflow="visible">
   <path d="m3.6094-1.5781v0.29688h-2.3438c0.019531 0.23047 0.10156 0.40625 0.25 0.53125 0.14453 0.11719 0.34766 0.17188 0.60938 0.17188 0.20703 0 0.42188-0.03125 0.64062-0.09375 0.22656-0.0625 0.45703-0.15625 0.6875-0.28125v0.76562c-0.24219 0.085938-0.48047 0.14844-0.71875 0.1875-0.23047 0.050781-0.46484 0.078125-0.70312 0.078125-0.5625 0-1-0.14062-1.3125-0.42188-0.3125-0.28906-0.46875-0.69531-0.46875-1.2188 0-0.50781 0.14844-0.91016 0.45312-1.2031 0.3125-0.28906 0.73828-0.4375 1.2812-0.4375 0.48828 0 0.87891 0.15234 1.1719 0.45312 0.30078 0.29297 0.45312 0.68359 0.45312 1.1719zm-1.0312-0.32812c0-0.1875-0.058594-0.33594-0.17188-0.45312-0.10547-0.11328-0.25-0.17188-0.4375-0.17188s-0.34375 0.054688-0.46875 0.15625c-0.11719 0.10547-0.1875 0.26172-0.21875 0.46875z"/>
  </symbol>
  <symbol id="i" overflow="visible">
   <path d="m1.875-1.4062c-0.21094 0-0.36719 0.039062-0.46875 0.10938-0.10547 0.074219-0.15625 0.17969-0.15625 0.3125 0 0.125 0.039062 0.22656 0.125 0.29688 0.09375 0.074219 0.21094 0.10938 0.35938 0.10938 0.1875 0 0.34375-0.066406 0.46875-0.20312 0.13281-0.13281 0.20312-0.30469 0.20312-0.51562v-0.10938zm1.5312-0.375v1.7812h-1v-0.46875c-0.13672 0.19922-0.28906 0.33984-0.45312 0.42188-0.16797 0.082031-0.37109 0.125-0.60938 0.125-0.32422 0-0.58984-0.09375-0.79688-0.28125-0.19922-0.1875-0.29688-0.42969-0.29688-0.73438 0-0.36328 0.125-0.62891 0.375-0.79688 0.25-0.17578 0.64453-0.26562 1.1875-0.26562h0.59375v-0.078125c0-0.15625-0.0625-0.26953-0.1875-0.34375-0.125-0.070313-0.32422-0.10938-0.59375-0.10938-0.21094 0-0.40625 0.023438-0.59375 0.0625-0.1875 0.042969-0.35938 0.10547-0.51562 0.1875v-0.76562c0.21875-0.050781 0.42969-0.085937 0.64062-0.10938 0.21875-0.03125 0.4375-0.046875 0.65625-0.046875 0.5625 0 0.96875 0.11719 1.2188 0.34375 0.25 0.21875 0.375 0.57812 0.375 1.0781z"/>
  </symbol>
  <symbol id="c" overflow="visible">
   <path d="m1.5781-4.0156v0.89062h1.0312v0.71875h-1.0312v1.3125c0 0.14844 0.023437 0.24609 0.078125 0.29688 0.0625 0.054687 0.17578 0.078125 0.34375 0.078125h0.51562v0.71875h-0.85938c-0.39844 0-0.67969-0.082031-0.84375-0.25-0.15625-0.16406-0.23438-0.44531-0.23438-0.84375v-1.3125h-0.5v-0.71875h0.5v-0.89062z"/>
  </symbol>
  <symbol id="h" overflow="visible">
   <path d="m2.6094-2.6719v-1.6719h1v4.3438h-1v-0.45312c-0.13672 0.1875-0.28906 0.32422-0.45312 0.40625-0.16797 0.082031-0.35938 0.125-0.57812 0.125-0.38672 0-0.70312-0.14844-0.95312-0.45312-0.25-0.3125-0.375-0.70703-0.375-1.1875 0-0.47656 0.125-0.86719 0.375-1.1719 0.25-0.3125 0.56641-0.46875 0.95312-0.46875 0.21875 0 0.41016 0.046875 0.57812 0.14062 0.16406 0.085938 0.31641 0.21484 0.45312 0.39062zm-0.65625 2.0312c0.20703 0 0.36719-0.078125 0.48438-0.23438 0.11328-0.15625 0.17188-0.38281 0.17188-0.6875 0-0.28906-0.058594-0.51562-0.17188-0.67188-0.11719-0.16406-0.27734-0.25-0.48438-0.25-0.21875 0-0.38672 0.085937-0.5 0.25-0.10547 0.15625-0.15625 0.38281-0.15625 0.67188 0 0.30469 0.050781 0.53125 0.15625 0.6875 0.11328 0.15625 0.28125 0.23438 0.5 0.23438z"/>
  </symbol>
  <symbol id="g" overflow="visible">
   <path d="m2.1406-0.64062c0.21875 0 0.37891-0.078125 0.48438-0.23438 0.11328-0.15625 0.17188-0.38281 0.17188-0.6875 0-0.28906-0.058594-0.51562-0.17188-0.67188-0.10547-0.16406-0.26562-0.25-0.48438-0.25-0.21094 0-0.37109 0.085937-0.48438 0.25-0.11719 0.15625-0.17188 0.38281-0.17188 0.67188 0 0.30469 0.054687 0.53125 0.17188 0.6875 0.11328 0.15625 0.27344 0.23438 0.48438 0.23438zm-0.65625-2.0312c0.13281-0.17578 0.28516-0.30469 0.45312-0.39062 0.16406-0.09375 0.35938-0.14062 0.57812-0.14062 0.38281 0 0.70312 0.15625 0.95312 0.46875 0.25 0.30469 0.375 0.69531 0.375 1.1719 0 0.48047-0.125 0.875-0.375 1.1875-0.25 0.30469-0.57031 0.45312-0.95312 0.45312-0.21875 0-0.41406-0.042969-0.57812-0.125-0.16797-0.082031-0.32031-0.21875-0.45312-0.40625v0.45312h-1v-4.3438h1z"/>
  </symbol>
  <symbol id="f" overflow="visible">
   <path d="m0.0625-3.125h1l0.84375 2.125 0.71875-2.125h1l-1.3125 3.4219c-0.13672 0.34375-0.29297 0.58203-0.46875 0.71875-0.17969 0.14453-0.40625 0.21875-0.6875 0.21875h-0.57812v-0.65625h0.3125c0.16406 0 0.28516-0.027344 0.35938-0.078125 0.082031-0.054688 0.14453-0.15234 0.1875-0.29688l0.03125-0.078125z"/>
  </symbol>
  <symbol id="e" overflow="visible">
   <path d="m0.48438-3.125h1v3.125h-1zm0-1.2188h1v0.8125h-1z"/>
  </symbol>
  <symbol id="k" overflow="visible">
   <path d="m3.625-1.9062v1.9062h-1v-1.4531c0-0.26953-0.011719-0.45703-0.03125-0.5625-0.011719-0.10156-0.03125-0.17969-0.0625-0.23438-0.03125-0.0625-0.085938-0.10938-0.15625-0.14062-0.0625-0.039063-0.13672-0.0625-0.21875-0.0625-0.21094 0-0.375 0.085937-0.5 0.25-0.11719 0.15625-0.17188 0.38281-0.17188 0.67188v1.5312h-1v-3.125h1v0.45312c0.14453-0.17578 0.30078-0.30469 0.46875-0.39062 0.17578-0.09375 0.36328-0.14062 0.5625-0.14062 0.36328 0 0.64062 0.11719 0.82812 0.34375 0.1875 0.21875 0.28125 0.53906 0.28125 0.95312z"/>
  </symbol>
  <symbol id="j" overflow="visible">
   <path d="m2.5312-4.3438v0.65625h-0.54688c-0.14844 0-0.24609 0.027344-0.29688 0.078125-0.054688 0.054687-0.078125 0.14062-0.078125 0.26562v0.21875h0.84375v0.71875h-0.84375v2.4062h-1v-2.4062h-0.5v-0.71875h0.5v-0.21875c0-0.34375 0.09375-0.59375 0.28125-0.75 0.1875-0.16406 0.47656-0.25 0.875-0.25z"/>
  </symbol>
  <symbol id="d" overflow="visible">
   <path d="m1.9688-2.4844c-0.21875 0-0.39062 0.078125-0.51562 0.23438-0.11719 0.15625-0.17188 0.38672-0.17188 0.6875 0 0.30469 0.054688 0.53125 0.17188 0.6875 0.125 0.15625 0.29688 0.23438 0.51562 0.23438s0.38281-0.078125 0.5-0.23438c0.11328-0.15625 0.17188-0.38281 0.17188-0.6875 0-0.30078-0.058594-0.53125-0.17188-0.6875-0.11719-0.15625-0.28125-0.23438-0.5-0.23438zm0-0.71875c0.53906 0 0.96094 0.14844 1.2656 0.4375 0.30078 0.29297 0.45312 0.69531 0.45312 1.2031 0 0.51172-0.15234 0.91406-0.45312 1.2031-0.30469 0.29297-0.72656 0.4375-1.2656 0.4375-0.54297 0-0.96484-0.14453-1.2656-0.4375-0.30469-0.28906-0.45312-0.69141-0.45312-1.2031 0-0.50781 0.14844-0.91016 0.45312-1.2031 0.30078-0.28906 0.72266-0.4375 1.2656-0.4375z"/>
  </symbol>
  <symbol id="r" overflow="visible">
   <path d="m3.375-2.6094c0.125-0.19531 0.27344-0.34375 0.45312-0.4375 0.17578-0.10156 0.36719-0.15625 0.57812-0.15625 0.35156 0 0.625 0.11719 0.8125 0.34375 0.1875 0.21875 0.28125 0.53906 0.28125 0.95312v1.9062h-1v-1.625-0.078125-0.10938c0-0.22656-0.03125-0.39062-0.09375-0.48438-0.0625-0.10156-0.16797-0.15625-0.3125-0.15625-0.1875 0-0.33594 0.078125-0.4375 0.23438-0.10547 0.15625-0.15625 0.38672-0.15625 0.6875v1.5312h-1.0156v-1.625c0-0.35156-0.03125-0.57812-0.09375-0.67188-0.054687-0.10156-0.15625-0.15625-0.3125-0.15625-0.1875 0-0.33594 0.078125-0.4375 0.23438-0.10547 0.15625-0.15625 0.38672-0.15625 0.6875v1.5312h-1.0156v-3.125h1.0156v0.45312c0.125-0.17578 0.26562-0.30469 0.42188-0.39062 0.15625-0.09375 0.32812-0.14062 0.51562-0.14062 0.21875 0 0.41016 0.054687 0.57812 0.15625 0.16406 0.10547 0.28906 0.25 0.375 0.4375z"/>
  </symbol>
  <symbol id="q" overflow="visible">
   <path d="m3.625-1.9062v1.9062h-1v-1.4531c0-0.26953-0.011719-0.45703-0.03125-0.5625-0.011719-0.10156-0.03125-0.17969-0.0625-0.23438-0.03125-0.0625-0.085938-0.10938-0.15625-0.14062-0.0625-0.039063-0.13672-0.0625-0.21875-0.0625-0.21094 0-0.375 0.085937-0.5 0.25-0.11719 0.15625-0.17188 0.38281-0.17188 0.67188v1.5312h-1v-4.3438h1v1.6719c0.14453-0.17578 0.30078-0.30469 0.46875-0.39062 0.17578-0.09375 0.36328-0.14062 0.5625-0.14062 0.36328 0 0.64062 0.11719 0.82812 0.34375 0.1875 0.21875 0.28125 0.53906 0.28125 0.95312z"/>
  </symbol>
  <symbol id="p" overflow="visible">
   <path d="m0.53125-4.1719h1.1875l1.5156 2.8594v-2.8594h1.0312v4.1719h-1.2031l-1.5156-2.8594v2.8594h-1.0156z"/>
  </symbol>
  <symbol id="o" overflow="visible">
   <path d="m0.45312-1.2188v-1.9062h1v0.3125 0.64062 0.5c0 0.26172 0.003906 0.44922 0.015625 0.5625 0.007812 0.10547 0.03125 0.18359 0.0625 0.23438 0.039062 0.0625 0.09375 0.11719 0.15625 0.15625 0.070312 0.03125 0.14844 0.046875 0.23438 0.046875 0.20703 0 0.36719-0.078125 0.48438-0.23438 0.125-0.16406 0.1875-0.39062 0.1875-0.67188v-1.5469h1v3.125h-1v-0.45312c-0.15625 0.1875-0.32031 0.32422-0.48438 0.40625-0.16797 0.082031-0.35156 0.125-0.54688 0.125-0.36719 0-0.64062-0.10938-0.82812-0.32812s-0.28125-0.53906-0.28125-0.96875z"/>
  </symbol>
  <symbol id="n" overflow="visible">
   <path d="m0.53125-4.1719h1.7812c0.53125 0 0.9375 0.12109 1.2188 0.35938 0.28125 0.23047 0.42188 0.5625 0.42188 1s-0.14062 0.77734-0.42188 1.0156c-0.28125 0.23047-0.6875 0.34375-1.2188 0.34375h-0.71875v1.4531h-1.0625zm1.0625 0.78125v1.1719h0.59375c0.20703 0 0.36719-0.050781 0.48438-0.15625 0.11328-0.10156 0.17188-0.25 0.17188-0.4375s-0.058594-0.32812-0.17188-0.42188c-0.11719-0.10156-0.27734-0.15625-0.48438-0.15625z"/>
  </symbol>
  <symbol id="m" overflow="visible">
   <path d="m0.48438-3.125h1v3.0625c0 0.42578-0.10547 0.75-0.3125 0.96875-0.19922 0.21875-0.49219 0.32812-0.875 0.32812h-0.48438v-0.65625h0.17188c0.1875 0 0.31641-0.042969 0.39062-0.125 0.070312-0.085937 0.10938-0.25781 0.10938-0.51562zm0-1.2188h1v0.8125h-1z"/>
  </symbol>
  <symbol id="l" overflow="visible">
   <path d="m3-3.0312v0.8125c-0.13672-0.09375-0.27344-0.16016-0.40625-0.20312-0.13672-0.039063-0.27734-0.0625-0.42188-0.0625-0.28125 0-0.5 0.085937-0.65625 0.25-0.15625 0.15625-0.23438 0.38281-0.23438 0.67188 0 0.29297 0.078125 0.52344 0.23438 0.6875 0.15625 0.15625 0.375 0.23438 0.65625 0.23438 0.15625 0 0.30078-0.019531 0.4375-0.0625 0.14453-0.050781 0.27344-0.11719 0.39062-0.20312v0.8125c-0.15625 0.0625-0.3125 0.10156-0.46875 0.125-0.15625 0.03125-0.32031 0.046875-0.48438 0.046875-0.5625 0-1.0078-0.14062-1.3281-0.42188-0.3125-0.28906-0.46875-0.69531-0.46875-1.2188 0-0.50781 0.15625-0.91016 0.46875-1.2031 0.32031-0.28906 0.76562-0.4375 1.3281-0.4375 0.16406 0 0.32812 0.015625 0.48438 0.046875s0.3125 0.074219 0.46875 0.125z"/>
  </symbol>
 </defs>
 <g>
  <path d="m496.86 308.57c41.941 0 76-34.059 76-76v-9.7148c0-122.86-100-222.86-222.86-222.86s-222.86 100-222.86 222.86v9.7148c0 41.941 34.059 76 76 76h15.426v91.43c0 18.855-15.43 34.285-34.285 34.285-18.855 0-34.285-15.43-34.285-34.285 0-6.2852-5.1445-11.43-11.43-11.43-6.2852 0-11.43 5.1445-11.43 11.43 0 31.543 25.602 57.145 57.145 57.145 31.543 0 57.145-25.602 57.145-57.145v-91.43h45.715v194.29c0 18.855-15.43 34.285-34.285 34.285s-34.285-15.43-34.285-34.285c0-6.2852-5.1445-11.43-11.43-11.43-6.2852 0-11.43 5.1445-11.43 11.43 0 31.543 25.602 57.145 57.145 57.145s57.145-25.602 57.145-57.145l-0.003906-194.29h80v194.29c0 31.543 25.602 57.145 57.145 57.145s57.145-25.602 57.145-57.145c0-6.2852-5.1445-11.43-11.43-11.43s-11.43 5.1445-11.43 11.43c0 18.855-15.43 34.285-34.285 34.285s-34.285-15.43-34.285-34.285l-0.003906-194.29h45.715v91.43c0 31.543 25.602 57.145 57.145 57.145 31.543 0 57.145-25.602 57.145-57.145 0-6.2852-5.1445-11.43-11.43-11.43-6.2852 0-11.43 5.1445-11.43 11.43 0 18.855-15.43 34.285-34.285 34.285-18.855 0-34.285-15.43-34.285-34.285v-91.43zm-346.86-76v-9.7148c0-110.29 89.715-200 200-200s200 89.715 200 200v9.7148c0 29.258-23.887 53.145-53.145 53.145h-293.71c-29.258 0-53.145-23.887-53.145-53.145z"/>
  <path d="m361.43 85.715c39.656 0 85.715 37.484 85.715 85.715 0 6.2852 5.1445 11.43 11.43 11.43 6.2852 0 11.43-5.1445 11.43-11.43 0-28.344-12.344-55.656-34.629-76.914-21.031-20.117-48.004-31.66-73.945-31.66-6.2852 0-11.43 5.1445-11.43 11.43s5.1445 11.43 11.43 11.43z"/>
  <use x="127.144531" y="577.144531" xlink:href="#s"/>
  <use x="131.335938" y="577.144531" xlink:href="#b"/>
  <use x="134.15625" y="577.144531" xlink:href="#a"/>
  <use x="138.03125" y="577.144531" xlink:href="#i"/>
  <use x="141.886719" y="577.144531" xlink:href="#c"/>
  <use x="144.617188" y="577.144531" xlink:href="#a"/>
  <use x="148.492188" y="577.144531" xlink:href="#h"/>
  <use x="154.574219" y="577.144531" xlink:href="#g"/>
  <use x="158.664062" y="577.144531" xlink:href="#f"/>
  <use x="164.378906" y="577.144531" xlink:href="#e"/>
  <use x="166.335938" y="577.144531" xlink:href="#g"/>
  <use x="170.425781" y="577.144531" xlink:href="#b"/>
  <use x="173.246094" y="577.144531" xlink:href="#i"/>
  <use x="177.101562" y="577.144531" xlink:href="#k"/>
  <use x="181.167969" y="577.144531" xlink:href="#h"/>
  <use x="185.257812" y="577.144531" xlink:href="#e"/>
  <use x="187.21875" y="577.144531" xlink:href="#j"/>
  <use x="189.703125" y="577.144531" xlink:href="#f"/>
  <use x="127.144531" y="582.855469" xlink:href="#j"/>
  <use x="129.628906" y="582.855469" xlink:href="#b"/>
  <use x="132.445312" y="582.855469" xlink:href="#d"/>
  <use x="136.371094" y="582.855469" xlink:href="#r"/>
  <use x="144.316406" y="582.855469" xlink:href="#c"/>
  <use x="147.046875" y="582.855469" xlink:href="#q"/>
  <use x="151.117188" y="582.855469" xlink:href="#a"/>
  <use x="156.980469" y="582.855469" xlink:href="#p"/>
  <use x="161.761719" y="582.855469" xlink:href="#d"/>
  <use x="165.6875" y="582.855469" xlink:href="#o"/>
  <use x="169.757812" y="582.855469" xlink:href="#k"/>
  <use x="175.816406" y="582.855469" xlink:href="#n"/>
  <use x="180.003906" y="582.855469" xlink:href="#b"/>
  <use x="182.820312" y="582.855469" xlink:href="#d"/>
  <use x="186.746094" y="582.855469" xlink:href="#m"/>
  <use x="188.707031" y="582.855469" xlink:href="#a"/>
  <use x="192.582031" y="582.855469" xlink:href="#l"/>
  <use x="195.96875" y="582.855469" xlink:href="#c"/>
 </g>
</svg>
